<svg data-v-fde0c5aa="" xmlns="http://www.w3.org/2000/svg" viewBox="0 0 300 300" class="iconAbove"><!----><defs data-v-fde0c5aa=""><linearGradient data-v-fde0c5aa="" gradientTransform="rotate(25)" id="9a780f9e-c943-448d-a305-79b290bb33c6" x1="0%" y1="0%" x2="100%" y2="0%"><stop data-v-fde0c5aa="" offset="0%" stop-color="#181B80" stop-opacity="1"></stop><stop data-v-fde0c5aa="" offset="100%" stop-color="#181ED9" stop-opacity="1"></stop></linearGradient></defs><rect data-v-fde0c5aa="" fill="url(#9a780f9e-c943-448d-a305-79b290bb33c6)" x="0" y="0" width="300px" height="300px" class="logo-background-square"></rect><defs data-v-fde0c5aa=""><!----></defs><g data-v-fde0c5aa="" id="633d0cff-5cb1-446a-a91e-4f915cf5883b" fill="#ffffff" transform="matrix(1.1545293229278148,0,0,1.1545293229278148,20,148.15896871080915)"><path d="M6.45 23.83L6.45 26.94L7.92 27.44L7.64 28L3.39 28L3.39 27.57L4.70 26.53L4.70 24.04L1.11 18.23L0 17.56L0.28 17.00L4.54 17.00L4.54 17.43L3.23 18.44L6.03 22.99L8.95 18.44L6.71 17.56L6.99 17.00L11.24 17.00L11.24 17.43L10.09 18.13L6.45 23.83ZM14.76 20.43Q15.68 20.43 16.41 20.91Q17.15 21.39 17.56 22.22Q17.98 23.04 17.98 24.04L17.98 24.04Q17.98 25.12 17.32 26.06Q16.66 27.01 15.67 27.57Q14.69 28.14 13.76 28.14L13.76 28.14Q12.84 28.14 12.10 27.66Q11.37 27.17 10.96 26.35Q10.54 25.52 10.54 24.53L10.54 24.53Q10.54 23.45 11.20 22.50Q11.86 21.56 12.85 20.99Q13.83 20.43 14.76 20.43L14.76 20.43ZM13.94 21.60Q12.36 21.60 12.36 23.86L12.36 23.86Q12.36 25.19 12.94 26.07Q13.51 26.96 14.57 26.96L14.57 26.96Q16.16 26.96 16.16 24.70L16.16 24.70Q16.16 23.38 15.58 22.49Q15.01 21.60 13.94 21.60L13.94 21.60ZM27.97 27.44L27.69 28L25.03 28L25.03 26.54L23.25 28.03Q22.96 28.14 22.48 28.14L22.48 28.14Q21.53 28.14 20.97 27.56Q20.41 26.98 20.41 25.98L20.41 25.98L20.41 22.64L19.17 21.91L19.17 21.48L21.56 20.30L22.09 20.30L22.09 25.28Q22.09 26.05 22.33 26.36Q22.57 26.67 23.18 26.67L23.18 26.67Q23.62 26.67 24.04 26.51Q24.46 26.35 25.03 25.87L25.03 25.87L25.03 22.64L23.79 21.91L23.79 21.48L26.18 20.30L26.71 20.30L26.71 26.95L27.97 27.44ZM34.64 26.91L33.22 28.03Q32.90 28.14 32.44 28.14L32.44 28.14Q31.28 28.14 30.74 27.53Q30.20 26.92 30.20 25.65L30.20 25.65L30.20 21.56L28.69 21.56L28.69 20.99L31.35 17.89L31.88 17.89L31.88 20.99L34.40 20.99L34.40 21.56L31.88 21.56L31.88 25.82Q31.88 26.95 32.97 26.95L32.97 26.95Q33.26 26.95 33.54 26.82Q33.81 26.70 34.22 26.38L34.22 26.38L34.64 26.91ZM44.28 27.44L44.00 28L41.34 28L41.34 23.28Q41.34 22.51 41.10 22.20Q40.87 21.90 40.25 21.90L40.25 21.90Q39.79 21.90 39.33 22.06Q38.88 22.23 38.26 22.71L38.26 22.71L38.26 26.95L39.52 27.44L39.24 28L35.34 28L35.34 27.57L36.58 26.59L36.58 17.98L35.34 17.11L35.34 16.67L37.73 15.78L38.26 15.78L38.26 22.05L40.18 20.54Q40.47 20.43 40.95 20.43L40.95 20.43Q41.90 20.43 42.46 21.01Q43.02 21.59 43.02 22.58L43.02 22.58L43.02 26.95L44.28 27.44ZM54.67 22.64Q55.62 22.64 56.18 22.12Q56.73 21.60 56.73 20.69L56.73 20.69Q56.73 19.40 56.08 18.59Q55.43 17.77 54.18 17.77L54.18 17.77Q53.23 17.77 52.44 18.31L52.44 18.31L52.44 26.85L54.61 27.45L54.33 28.01L49.38 28.01L49.38 27.58L50.69 26.54L50.69 18.03L49.24 17.56L49.52 17.00L51.14 17.00Q52.50 17.00 53.82 16.91L53.82 16.91Q54.80 16.86 55.26 16.86L55.26 16.86Q56.24 16.86 57.00 17.27Q57.76 17.68 58.18 18.41Q58.60 19.14 58.60 20.02L58.60 20.02Q58.60 21 57.89 21.87Q57.18 22.74 56.07 23.23Q54.96 23.72 53.90 23.66L53.90 23.66L53.24 23.18L53.52 22.62L54.66 22.62L54.67 22.64ZM64.71 20.44Q65.17 20.44 65.52 20.69Q65.87 20.94 66.07 21.39L66.07 21.39L65.14 22.55L64.61 22.55Q64.55 22.20 64.41 22.06Q64.26 21.91 64.01 21.91L64.01 21.91Q63.70 21.91 63.36 22.07Q63.01 22.23 62.58 22.68L62.58 22.68L62.58 26.85L64.54 27.45L64.26 28.01L59.65 28.01L59.65 27.58L60.90 26.60L60.90 22.64L59.65 21.91L59.65 21.48L62.05 20.30L62.48 22.02L63.94 20.54Q64.23 20.43 64.71 20.43L64.71 20.43L64.71 20.44ZM71.34 20.43Q72.27 20.43 73.00 20.91Q73.74 21.39 74.15 22.22Q74.56 23.04 74.56 24.04L74.56 24.04Q74.56 25.12 73.91 26.06Q73.25 27.01 72.26 27.57Q71.27 28.14 70.35 28.14L70.35 28.14Q69.43 28.14 68.69 27.66Q67.96 27.17 67.54 26.35Q67.13 25.52 67.13 24.53L67.13 24.53Q67.13 23.45 67.79 22.50Q68.45 21.56 69.43 20.99Q70.42 20.43 71.34 20.43L71.34 20.43ZM70.53 21.60Q68.95 21.60 68.95 23.86L68.95 23.86Q68.95 25.19 69.52 26.07Q70.10 26.96 71.16 26.96L71.16 26.96Q72.74 26.96 72.74 24.70L72.74 24.70Q72.74 23.38 72.17 22.49Q71.60 21.60 70.53 21.60L70.53 21.60ZM81.07 15.64Q81.47 15.64 81.96 15.71Q82.46 15.79 82.67 15.88L82.67 15.88L82.67 18.03L82.14 18.03Q81.79 17.47 81.28 17.14Q80.78 16.81 80.26 16.81L80.26 16.81Q79.62 16.81 79.29 17.39Q78.96 17.96 78.96 19.07L78.96 19.07L78.96 20.99L81.48 20.99L81.48 21.56L78.96 21.56L78.96 26.84L80.92 27.44L80.64 28L76.03 28L76.03 27.57L77.28 26.59L77.28 21.56L75.61 21.56L75.61 20.99L77.28 20.99L77.28 19.74Q77.28 18.66 77.87 17.71Q78.46 16.76 79.35 16.20Q80.23 15.64 81.07 15.64L81.07 15.64ZM89.29 26.07L86.81 28.03Q86.25 28.14 85.47 28.14L85.47 28.14Q84.55 28.14 83.81 27.66Q83.08 27.17 82.66 26.35Q82.25 25.52 82.25 24.53L82.25 24.53Q82.25 23.45 82.91 22.50Q83.57 21.56 84.55 20.99Q85.54 20.43 86.46 20.43L86.46 20.43Q87.79 20.43 88.53 21.48Q89.26 22.53 89.26 24.25L89.26 24.25L84.08 24.25Q84.17 25.44 84.74 26.19Q85.30 26.95 86.28 26.95L86.28 26.95Q87.19 26.95 88.87 25.54L88.87 25.54L89.29 26.07ZM85.65 21.60Q84.14 21.60 84.07 23.67L84.07 23.67L87.35 23.67Q87.22 22.92 87.09 22.52Q86.95 22.12 86.63 21.86Q86.30 21.60 85.65 21.60L85.65 21.60ZM95.55 26.49Q95.55 26.10 95.12 25.77Q94.68 25.44 93.79 24.98L93.79 24.98Q93.06 24.60 92.61 24.32Q92.16 24.04 91.85 23.67Q91.53 23.30 91.53 22.86L91.53 22.86Q91.53 22.36 91.95 21.78Q92.37 21.21 92.99 20.82Q93.60 20.43 94.14 20.43L94.14 20.43Q94.78 20.43 95.63 20.59Q96.47 20.75 96.85 20.94L96.85 20.94L96.85 23.10L96.32 23.10Q95.87 22.23 95.28 21.75Q94.70 21.27 94.08 21.27L94.08 21.27Q93.65 21.27 93.38 21.50Q93.11 21.73 93.11 22.08L93.11 22.08Q93.11 22.51 93.57 22.86Q94.02 23.20 94.95 23.66L94.95 23.66Q95.66 24.02 96.10 24.29Q96.53 24.56 96.83 24.91Q97.13 25.27 97.13 25.70L97.13 25.70Q97.13 26.22 96.69 26.79Q96.25 27.36 95.61 27.75Q94.98 28.14 94.44 28.14L94.44 28.14Q93.76 28.14 92.81 27.98Q91.87 27.82 91.46 27.62L91.46 27.62L91.46 25.47L91.99 25.47Q92.48 26.33 93.16 26.82Q93.83 27.30 94.51 27.30L94.51 27.30Q94.98 27.30 95.26 27.06Q95.55 26.82 95.55 26.49L95.55 26.49ZM103.38 26.49Q103.38 26.10 102.94 25.77Q102.51 25.44 101.61 24.98L101.61 24.98Q100.88 24.60 100.44 24.32Q99.99 24.04 99.67 23.67Q99.36 23.30 99.36 22.86L99.36 22.86Q99.36 22.36 99.78 21.78Q100.20 21.21 100.81 20.82Q101.43 20.43 101.96 20.43L101.96 20.43Q102.61 20.43 103.45 20.59Q104.30 20.75 104.68 20.94L104.68 20.94L104.68 23.10L104.15 23.10Q103.70 22.23 103.11 21.75Q102.52 21.27 101.91 21.27L101.91 21.27Q101.47 21.27 101.21 21.50Q100.94 21.73 100.94 22.08L100.94 22.08Q100.94 22.51 101.40 22.86Q101.85 23.20 102.77 23.66L102.77 23.66Q103.49 24.02 103.92 24.29Q104.36 24.56 104.66 24.91Q104.96 25.27 104.96 25.70L104.96 25.70Q104.96 26.22 104.52 26.79Q104.08 27.36 103.44 27.75Q102.80 28.14 102.27 28.14L102.27 28.14Q101.58 28.14 100.64 27.98Q99.69 27.82 99.29 27.62L99.29 27.62L99.29 25.47L99.82 25.47Q100.31 26.33 100.98 26.82Q101.65 27.30 102.34 27.30L102.34 27.30Q102.80 27.30 103.09 27.06Q103.38 26.82 103.38 26.49L103.38 26.49ZM110.88 27.44L110.60 28L106.69 28L106.69 27.57L107.94 26.59L107.94 22.50L106.69 21.63L106.69 21.20L109.09 20.30L109.62 20.30L109.62 26.95L110.88 27.44ZM108.72 16.10Q109.14 16.10 109.42 16.41Q109.69 16.72 109.69 17.18L109.69 17.18Q109.69 17.50 109.49 17.79Q109.30 18.07 109.00 18.24Q108.71 18.41 108.43 18.41L108.43 18.41Q108.01 18.41 107.74 18.10Q107.46 17.79 107.46 17.33L107.46 17.33Q107.46 17.01 107.66 16.72Q107.86 16.44 108.15 16.27Q108.44 16.10 108.72 16.10L108.72 16.10ZM116.56 20.43Q117.49 20.43 118.22 20.91Q118.96 21.39 119.37 22.22Q119.78 23.04 119.78 24.04L119.78 24.04Q119.78 25.12 119.13 26.06Q118.47 27.01 117.48 27.57Q116.49 28.14 115.57 28.14L115.57 28.14Q114.65 28.14 113.91 27.66Q113.18 27.17 112.76 26.35Q112.35 25.52 112.35 24.53L112.35 24.53Q112.35 23.45 113.01 22.50Q113.67 21.56 114.65 20.99Q115.64 20.43 116.56 20.43L116.56 20.43ZM115.75 21.60Q114.17 21.60 114.17 23.86L114.17 23.86Q114.17 25.19 114.74 26.07Q115.32 26.96 116.38 26.96L116.38 26.96Q117.96 26.96 117.96 24.70L117.96 24.70Q117.96 23.38 117.39 22.49Q116.82 21.60 115.75 21.60L115.75 21.60ZM130.48 27.45L130.20 28.01L127.54 28.01L127.54 23.30Q127.54 22.53 127.30 22.22Q127.06 21.91 126.45 21.91L126.45 21.91Q125.99 21.91 125.53 22.08Q125.08 22.25 124.46 22.72L124.46 22.72L124.46 26.96L125.72 27.45L125.44 28.01L121.53 28.01L121.53 27.58L122.78 26.60L122.78 22.64L121.53 21.91L121.53 21.48L123.93 20.30L124.39 22.12L126.38 20.54Q126.67 20.43 127.15 20.43L127.15 20.43Q128.10 20.43 128.66 21.01Q129.22 21.59 129.22 22.58L129.22 22.58L129.22 26.95L130.48 27.45ZM139.17 27.44L138.89 28L136.23 28L136.23 26.78L134.65 28.03Q134.37 28.14 133.95 28.14L133.95 28.14Q132.75 28.14 132.21 27.54Q131.67 26.94 131.67 26.10L131.67 26.10Q131.67 25.59 132.03 25.10Q132.40 24.61 133.07 24.18L133.07 24.18L136.23 24.18L136.23 23.28Q136.23 22.37 135.75 21.99Q135.27 21.62 134.43 21.62L134.43 21.62Q133.56 21.62 132.30 22.67L132.30 22.67L131.88 22.13L133.90 20.54Q134.46 20.43 135.24 20.43L135.24 20.43Q136.51 20.43 137.21 21.05Q137.91 21.67 137.91 22.86L137.91 22.86L137.91 26.95L139.17 27.44ZM134.40 26.95Q135.25 26.95 136.23 26.17L136.23 26.17L136.23 24.75L133.76 24.75Q133.57 24.98 133.50 25.20Q133.42 25.42 133.42 25.69L133.42 25.69Q133.42 26.21 133.69 26.58Q133.95 26.95 134.40 26.95L134.40 26.95ZM144.20 27.44L143.92 28L140.01 28L140.01 27.57L141.26 26.59L141.26 17.98L140.01 17.11L140.01 16.67L142.41 15.78L142.94 15.78L142.94 26.95L144.20 27.44ZM154.73 22.64Q155.68 22.64 156.23 22.12Q156.79 21.60 156.79 20.69L156.79 20.69Q156.79 19.40 156.13 18.59Q155.48 17.77 154.24 17.77L154.24 17.77Q153.29 17.77 152.50 18.31L152.50 18.31L152.50 26.85L154.67 27.45L154.39 28.01L149.44 28.01L149.44 27.58L150.75 26.54L150.75 18.03L149.30 17.56L149.58 17.00L151.20 17.00Q152.56 17.00 153.87 16.91L153.87 16.91Q154.85 16.86 155.32 16.86L155.32 16.86Q156.30 16.86 157.06 17.27Q157.82 17.68 158.24 18.41Q158.66 19.14 158.66 20.02L158.66 20.02Q158.66 21 157.95 21.87Q157.23 22.74 156.13 23.23Q155.02 23.72 153.96 23.66L153.96 23.66L153.30 23.18L153.58 22.62L154.71 22.62L154.73 22.64ZM164.18 27.44L163.90 28L159.99 28L159.99 27.57L161.24 26.59L161.24 17.98L159.99 17.11L159.99 16.67L162.39 15.78L162.92 15.78L162.92 26.95L164.18 27.44ZM173.01 27.44L172.73 28L170.07 28L170.07 26.78L168.49 28.03Q168.21 28.14 167.79 28.14L167.79 28.14Q166.59 28.14 166.05 27.54Q165.51 26.94 165.51 26.10L165.51 26.10Q165.51 25.59 165.87 25.10Q166.24 24.61 166.91 24.18L166.91 24.18L170.07 24.18L170.07 23.28Q170.07 22.37 169.59 21.99Q169.11 21.62 168.27 21.62L168.27 21.62Q167.40 21.62 166.14 22.67L166.14 22.67L165.72 22.13L167.73 20.54Q168.29 20.43 169.08 20.43L169.08 20.43Q170.35 20.43 171.05 21.05Q171.75 21.67 171.75 22.86L171.75 22.86L171.75 26.95L173.01 27.44ZM168.24 26.95Q169.09 26.95 170.07 26.17L170.07 26.17L170.07 24.75L167.59 24.75Q167.41 24.98 167.34 25.20Q167.26 25.42 167.26 25.69L167.26 25.69Q167.26 26.21 167.52 26.58Q167.79 26.95 168.24 26.95L168.24 26.95ZM179.54 26.91L178.12 28.03Q177.80 28.14 177.34 28.14L177.34 28.14Q176.18 28.14 175.64 27.53Q175.10 26.92 175.10 25.65L175.10 25.65L175.10 21.56L173.59 21.56L173.59 20.99L176.25 17.89L176.78 17.89L176.78 20.99L179.30 20.99L179.30 21.56L176.78 21.56L176.78 25.82Q176.78 26.95 177.87 26.95L177.87 26.95Q178.16 26.95 178.44 26.82Q178.71 26.70 179.12 26.38L179.12 26.38L179.54 26.91ZM187.63 26.07L185.15 28.03Q184.59 28.14 183.81 28.14L183.81 28.14Q182.88 28.14 182.15 27.66Q181.41 27.17 181.00 26.35Q180.59 25.52 180.59 24.53L180.59 24.53Q180.59 23.45 181.24 22.50Q181.90 21.56 182.89 20.99Q183.88 20.43 184.80 20.43L184.80 20.43Q186.13 20.43 186.87 21.48Q187.60 22.53 187.60 24.25L187.60 24.25L182.42 24.25Q182.50 25.44 183.07 26.19Q183.64 26.95 184.62 26.95L184.62 26.95Q185.53 26.95 187.21 25.54L187.21 25.54L187.63 26.07ZM183.99 21.60Q182.48 21.60 182.41 23.67L182.41 23.67L185.68 23.67Q185.56 22.92 185.42 22.52Q185.29 22.12 184.96 21.86Q184.63 21.60 183.99 21.60L183.99 21.60ZM194.14 15.64Q194.53 15.64 195.03 15.71Q195.52 15.79 195.73 15.88L195.73 15.88L195.73 18.03L195.20 18.03Q194.85 17.47 194.35 17.14Q193.84 16.81 193.33 16.81L193.33 16.81Q192.68 16.81 192.35 17.39Q192.02 17.96 192.02 19.07L192.02 19.07L192.02 20.99L194.54 20.99L194.54 21.56L192.02 21.56L192.02 26.84L193.98 27.44L193.70 28L189.10 28L189.10 27.57L190.34 26.59L190.34 21.56L188.68 21.56L188.68 20.99L190.34 20.99L190.34 19.74Q190.34 18.66 190.93 17.71Q191.52 16.76 192.41 16.20Q193.30 15.64 194.14 15.64L194.14 15.64ZM199.53 20.43Q200.45 20.43 201.19 20.91Q201.92 21.39 202.34 22.22Q202.75 23.04 202.75 24.04L202.75 24.04Q202.75 25.12 202.09 26.06Q201.43 27.01 200.44 27.57Q199.46 28.14 198.53 28.14L198.53 28.14Q197.61 28.14 196.88 27.66Q196.14 27.17 195.73 26.35Q195.31 25.52 195.31 24.53L195.31 24.53Q195.31 23.45 195.97 22.50Q196.63 21.56 197.62 20.99Q198.60 20.43 199.53 20.43L199.53 20.43ZM198.72 21.60Q197.13 21.60 197.13 23.86L197.13 23.86Q197.13 25.19 197.71 26.07Q198.28 26.96 199.35 26.96L199.35 26.96Q200.93 26.96 200.93 24.70L200.93 24.70Q200.93 23.38 200.35 22.49Q199.78 21.60 198.72 21.60L198.72 21.60ZM209.55 20.44Q210.01 20.44 210.36 20.69Q210.71 20.94 210.91 21.39L210.91 21.39L209.99 22.55L209.45 22.55Q209.40 22.20 209.25 22.06Q209.10 21.91 208.85 21.91L208.85 21.91Q208.54 21.91 208.20 22.07Q207.86 22.23 207.42 22.68L207.42 22.68L207.42 26.85L209.38 27.45L209.10 28.01L204.50 28.01L204.50 27.58L205.74 26.60L205.74 22.64L204.50 21.91L204.50 21.48L206.89 20.30L207.33 22.02L208.78 20.54Q209.08 20.43 209.55 20.43L209.55 20.43L209.55 20.44ZM225.20 27.44L224.92 28L222.26 28L222.26 23.28Q222.26 22.51 222.03 22.20Q221.79 21.90 221.17 21.90L221.17 21.90Q220.74 21.90 220.32 22.06Q219.90 22.22 219.32 22.69L219.32 22.69L219.32 26.95L220.58 27.44L220.30 28L217.64 28L217.64 23.28Q217.64 22.51 217.41 22.20Q217.17 21.90 216.55 21.90L216.55 21.90Q216.12 21.90 215.70 22.06Q215.28 22.22 214.70 22.69L214.70 22.69L214.70 26.95L215.96 27.44L215.68 28L211.78 28L211.78 27.57L213.02 26.59L213.02 22.62L211.78 21.90L211.78 21.46L214.17 20.29L214.62 22.08L216.48 20.52Q216.78 20.41 217.25 20.41L217.25 20.41Q218.06 20.41 218.60 20.85Q219.13 21.29 219.27 22.06L219.27 22.06L221.09 20.54Q221.38 20.43 221.86 20.43L221.86 20.43Q222.81 20.43 223.37 21.01Q223.93 21.59 223.93 22.58L223.93 22.58L223.93 26.95L225.20 27.44Z"></path></g><defs data-v-fde0c5aa=""><!----></defs><g data-v-fde0c5aa="" id="4dcc3800-dd93-4496-803a-cff9d8590f95" stroke="none" fill="#ffffff" transform="matrix(0.342303237576138,0,0,0.342303237576138,134.5963549619654,118.7777302655659)"><path d="M70.2 23.2c-4.4-9.2-17.9-9.6-23.4-1.1-6-8.4-19-8.1-23.4 1.1-3.4 7.2 3.4 25.4 8.2 30.9 4.8 5.4 12 1.3 15.2 1.3 3.2 0 10.4 4.1 15.2-1.3s11.7-23.7 8.2-30.9z"></path><path d="M47 14.9C49 4.3 56.8 1.4 64.1 1.7c-2.5 8.9-8.6 11.9-17.1 13.2z"></path><path d="M45.6 21.9c.2-3.8.3-7.6-.2-9.7-.5-2.5-2.2-4.4-2.8-5.1-1.1-1.1-.2-2 .6-2.2 1.2-.3 1.8.6 2.4 1.3.6.8 1.5 2.9 1.8 5.2.4 2.8.2 7.7 0 10.2-.4 4.7-1.8.3-1.8.3zM76.1 86H25.9c-6.6 0-12-5.4-12-12s5.4-12 12-12h50.2v4.7H25.9c-4 0-7.3 3.3-7.3 7.3s3.3 7.3 7.3 7.3h50.2V86z"></path><path d="M75 68.7H24.7c-1.4.3-2.5 1.1-3.3 2.3H75v-2.3zM75 72.8H20.7c-.1.4-.1.7-.1 1.1s0 .8.1 1.1H75v-2.2zM75 76.9H21.4c.7 1.1 1.9 2 3.3 2.3H75v-2.3z"></path></g><!----></svg>